/* XPM */
static char *money1624802661[] = {
/* columns rows colors chars-per-pixel */
"72 54 243 2 ",
"   c None",
".  c #000000",
"X  c #090000",
"o  c #120000",
"O  c #1D0000",
"+  c #1F0C00",
"@  c #0F1700",
"#  c #230000",
"$  c #2B0000",
"%  c #270B00",
"&  c #320000",
"*  c #2C1200",
"=  c #231A00",
"-  c #2B1D00",
";  c #281603",
":  c #311C00",
">  c #2D2300",
",  c #2D2B01",
"<  c #272300",
"1  c #322500",
"2  c #342C00",
"3  c #392D00",
"4  c #312F09",
"5  c #353202",
"6  c #3B3401",
"7  c #3C3B03",
"8  c #3D340A",
"9  c #37370C",
"0  c #3B3913",
"q  c #3B3717",
"w  c #3D2F16",
"e  c #393B23",
"r  c #413B04",
"t  c #413D0A",
"y  c #403507",
"u  c #423C14",
"i  c #423B19",
"p  c #533D00",
"a  c #413A27",
"s  c #3F410D",
"d  c #3A4416",
"f  c #43420D",
"g  c #424302",
"h  c #594900",
"j  c #444313",
"k  c #484313",
"l  c #45421B",
"z  c #45491B",
"x  c #4B4C1D",
"c  c #4A4B14",
"v  c #4C551A",
"b  c #535A1C",
"n  c #4E5213",
"m  c #54681A",
"M  c #536A0F",
"N  c #69771C",
"B  c #4D4D22",
"V  c #4A4728",
"C  c #514B27",
"Z  c #4D5224",
"A  c #4F5C23",
"S  c #525425",
"D  c #535A24",
"F  c #535528",
"G  c #555C2B",
"H  c #5A5D2E",
"J  c #595526",
"K  c #4E4A38",
"L  c #524D36",
"P  c #535233",
"I  c #585838",
"U  c #4E5030",
"Y  c #655824",
"T  c #5B622C",
"R  c #5B6C2A",
"E  c #586625",
"W  c #5B7323",
"Q  c #5C732B",
"!  c #587629",
"~  c #5C6433",
"^  c #5F6737",
"/  c #5D7831",
"(  c #606E2B",
")  c #61752B",
"_  c #627A2D",
"`  c #677729",
"'  c #636D35",
"]  c #646C3A",
"[  c #66683B",
"{  c #647C32",
"}  c #66733D",
"|  c #6A743E",
" . c #6B7A3C",
".. c #677A36",
"X. c #757932",
"o. c #757B2A",
"O. c #745814",
"+. c #5B5A45",
"@. c #615D45",
"#. c #666649",
"$. c #6B7442",
"%. c #6C7A42",
"&. c #667141",
"*. c #737D4A",
"=. c #737944",
"-. c #6A6755",
";. c #74735C",
":. c #746C50",
">. c #797463",
",. c #7A7966",
"<. c #787669",
"1. c #7B7972",
"2. c #956B03",
"3. c #8D7418",
"4. c #9C7510",
"5. c #A57500",
"6. c #A87700",
"7. c #A67902",
"8. c #A87919",
"9. c #A97700",
"0. c #866927",
"q. c #8A782B",
"w. c #927A35",
"e. c #8A7A2F",
"r. c #A97D23",
"t. c #837C6A",
"y. c #827E71",
"u. c #85795E",
"i. c #668135",
"p. c #698539",
"a. c #6E8636",
"s. c #5C8437",
"d. c #6D8344",
"f. c #75844C",
"g. c #758B4B",
"h. c #7A8D4D",
"j. c #768847",
"k. c #7A934C",
"l. c #7C994E",
"z. c #769348",
"x. c #7C8C52",
"c. c #788452",
"v. c #7E9752",
"b. c #AC800E",
"n. c #9A883A",
"m. c #8F822E",
"M. c #AC8224",
"N. c #AA842A",
"B. c #AD873A",
"V. c #B48934",
"C. c #BC933D",
"Z. c #B0892F",
"A. c #C18F2C",
"S. c #81964E",
"D. c #838D55",
"F. c #829554",
"G. c #839B54",
"H. c #859559",
"J. c #8B9C5C",
"K. c #899A58",
"L. c #838D4E",
"P. c #B1934B",
"I. c #8AA35B",
"U. c #8DAA5D",
"Y. c #87A157",
"T. c #91A65D",
"R. c #9CA556",
"E. c #AEA657",
"W. c #89836D",
"Q. c #8C9C62",
"!. c #878678",
"~. c #948B74",
"^. c #AE9976",
"/. c #8BA361",
"(. c #8BAA62",
"). c #92A564",
"_. c #93AC69",
"`. c #99AC6A",
"'. c #94AC65",
"]. c #93B365",
"[. c #99B56B",
"{. c #9DBB6D",
"}. c #97B368",
"|. c #9DBE70",
" X c #9BB571",
".X c #8FB160",
"XX c #A2BD72",
"oX c #A3B471",
"OX c #BDA76E",
"+X c #CAA956",
"@X c #D4AC55",
"#X c #D9B45C",
"$X c #D6B060",
"%X c #E4BD63",
"&X c #C99E49",
"*X c #9FC271",
"=X c #9DC16D",
"-X c #A5C36F",
";X c #A3C374",
":X c #A9C375",
">X c #AAC579",
",X c #ACCB7B",
"<X c #A6C978",
"1X c #B2CF7D",
"2X c #B2D07D",
"3X c #E6C25F",
"4X c #F1CA6D",
"5X c #F4CD72",
"6X c #FDD579",
"7X c #FFDA7C",
"8X c #F6D474",
"9X c #EFC96D",
"0X c #8A8A85",
"qX c #928E88",
"wX c #96938B",
"eX c #9B9A95",
"rX c #8F908C",
"tX c #A89C87",
"yX c #A09D97",
"uX c #9FA297",
"iX c #BAA98A",
"pX c #BBA888",
"aX c #A4A29C",
"sX c #A8A597",
"dX c #B5A993",
"fX c #ACAAA5",
"gX c #ADADAB",
"hX c #A9A6A3",
"jX c #B4B2AC",
"kX c #B9B3B4",
"lX c #B0ACA8",
"zX c #C4BEB4",
"xX c #C0B3A3",
"cX c #CFB898",
"vX c #AFCB80",
"bX c #B2CD84",
"nX c #B7D583",
"mX c #FCDA86",
"MX c #C6C3B9",
"NX c #D6CCBF",
"BX c #C6C7C8",
"VX c #C9C9CA",
"CX c #C6C8C8",
/* pixels */
"                                                                                                                                                ",
"                                                                                                                                                ",
"                                                                                                                                                ",
"                                                                                    9 2 4                                                       ",
"                                                                                    D b J                                                       ",
"                                                                            V r 3 v  .{ i.c 3 r C                                               ",
"                                                                      4 5 2 G E m R _ / { R E ( H 1 9 4                                         ",
"                                                                      f j t R p.i.i._ { _ _ { i.R 7 f z                                         ",
"                                                                q u i ( W m U.{.{.{.{.|.-X{.XXXXY.m Q W V q l                                   ",
"                                                              [ ( c D L.z.z.].:X<X;X<X{.}.].[.<X].z.z.j.v c n I                                 ",
"                                                        . . . O.M.N p.<X;X<X:X<X:XXX:XG.M M s.;X:X;X:X;Xp._ i.D w u V                           ",
"                                                  0   C OX+XE.$X#Xn.q.E.R.G.G.G.G.U.;X}.I.U.(.*X;XXX;X-Xa._ _ W E b ~ U   0                     ",
"                                                  k 6 S 8X7XmX7X6XC.7.8.3.! W W M j.:X:X;X<X<X*X;X*X*X*Xp.) _ ..i.i./ 6 7 k                     ",
"                                          4 5 > Z R E ) V.C.V.%X7X5X4X5X#X3.N.q.` p.p.U.;X*X*X*X;X;X<X;Xa._ { E 7 7 v H.=.3                     ",
"                                          B n c R z.a.j.n.N.3.@X5X9X5X7X3XV.C.C.e...N Y.<X*X<X*X=X{.[.}...( ' E B B F F.=.6                     ",
"                                    i 8 q R _ m S.:X;X-X-X].! m.M.8.V.7XmX6X6X8XN.4.5.E.*X*X*XvX.XW i.{ y 1 O $.U.Y.F., 2 j                     ",
"                              #.  #.D b b z.Y.l..X;X*X*X<X].! o.e.q.n.#X#X#X8X7X@X+X@X+XR.R.R.U.k.m E E ' ^ } | |  .%.} H r                     ",
"                            q t 3 v i._ i.{.<X<X;X=X;X*X<X].W _ _ / o.8.8.2.%X7X6X6X7X@X2.5.5.! v * - 3 K.I.U.| o $ 7 /.f.3                     ",
"                      q 5 > T W R Q ! _ ! [.*X*X;X;X;X<X*X|.}.S.W _ / o.o.o.B.&XC.@X6X4X3XcXxXr.m.g.g.g.T G F | h.j.j.G B t                     ",
"                      j k C ' ......{ _ _ [.<X*X;X;XXX|.*X|.>XI.{ p.p.p.p.s.e.4.2.C.8X6XmXVXMXM.L.H.K.F.x 8 3 | K.K.k.l 7 f                     ",
"                      : f.bX} X < f ../ _ {.<X<X<X:Xz.W W z.:XXX;X{.;X<X;X:XS.` a.m.7.pXMXCXzXM.0.> y 6 F.K.J.| - 5 j J.*.3                     ",
"                      2 | _.c.$.*.| R R R I.].U.}.:XY.z.z.G.;X;X;X;X=XU..X}.d.R R ..7.iXCXVXzXM.q.T H H p.j.g.$.H ~ ^ f.| 6                     ",
"                      l 1 . `.2X2X`.. & # E / W G.<X:X,X>X>X:X:X:X:X{.Q Q _ g $ o h 7.pXVXVXzXr.n.Y.Y.K.y & o | U.I.F.- 1 f                     ",
"                      3 | ).c.=.=.f./.Y.I.' v v ..G.l.l.l.l.v.l.l.v.z.E D n c.!.0X~.5.pXVXVXzXr.q.~ ' ' d.d.d.$.' T ^ f.] y                     ",
"                      - f.1X] # O ] vX<X>X~ 1 8 v ) Q Q W W W W Q Q R 5 8 - !.jXfXtX6.iXVXVXzXZ.0.= 3 6 F.K.J.| % 2 j J.*.6                     ",
"                      u u 8 ).XX:X).8 V i _.XXXXH.; r 7 ..{ i.m 8 7 P uXsXaX:.6 i Y 6.iXVXVXzXr.n.G.F.F.x f 6 } G.v.h.k r k                     ",
"                      0 Z ~ Q.[.[.Q.H ] ^ ). X[.H.~ ] ] ' Q Q T G b [ wXeXeX>.+.+.#.5.iXVXBXzXr.n.h.L.h.H S B | L.k.h.H B t                     ",
"                      - c.nX] . . #.bX<XvXP . . f.1X<X:XC 2 O %.T.U.L.= * . qXgXgXsX5.iXVXBXzXM.0.. * 1 H.I.T.| o $ y Q.g.3                     ",
"                      6 ^ x.D.H.F.H.x.x.L.H.v.H.v.x.x.x.j x  .| ] } | $.%.| >.1.1.t.5.iXCXCXMXM.w.} %.} $.} } } | | | | T 7                     ",
"                      l 2 . _.vX,X_.. $ o  XvXvXJ.. # O 1 H T.} O * j J.Y.I.m . . p 6.pXCXCXzXr.n.I.Y.J.7 = O | U.I.G.> 1 j                     ",
"                      1 =.XX%.F F =. X}. X&.F Z f. X[. XB t x &.v.x.f.n v g !.yXeXtX6.iXVXCXzXM.q.d Z Z g.x.F.} c x F x.=.6                     ",
"                      1 *.:X$.z z $.XX{. X&.x j f.;X|. XB 7 j &.G.F.x.C L V !.aXyXtX6.iXVXCXMXN.0.d z z h.L.H.} j j Z H.=.6                     ",
"                      i 3 . ).,X,X_.. & O  X,X,XJ.. * ; 1 H T...o % V sXgXgX#.. @ h 6.iXVXBXMXr.B.Y.Y.G.t < O } U.J.F.7 7 j                     ",
"                      9 ~ x.H.J.K.H.c.c.c.H.J.J.F.f.c.f.u v d.;.<.<.<.!.0X!.,.<.<.u.5.iXVXBXzXM.w.%.d.%.] ' ] } %. .*.U 1 q                     ",
"                      - c.nX&.. . [ bX<X,XU . . d.1X,X>XS 3 . W.gXgXhX. X . wXjXgXsX7.iXVXBXzXM.0.. % 1 K.I.T.%.> 6 K                           ",
"                      0 F ] K.'.'.Q.[ ' | /.'.'.H.] } ] 6 +.wX,.@.#.-.wXrXwX<.@.#.:.7.pXVXBXzXr.w.g.h.f.H J m #.                                ",
"                      i r : ).:XXX(.: i 3 _.:X:XH.% t q 1 #.fX,.> 6 P hXhXhX-., 5 J 6.pXCXCXzXM.n.G.G.F.P a V                                   ",
"                      1 *.1X$.$ * &.>XXX:X~ - # f.>X;XXXB 6 = t.fXaXeX6 6 - !.fXaXtX5.iXVXCXMXZ.0.7 g P                                         ",
"                      3 | _.f.} ] f._.U.).*.$.} x._.(./.z V -.t.qXqX!.-.-.-.!.wXrX~.5.OXxXxXdXZ.w.e l L                                         ",
"                      i y . `.bX2X`.. O . oX,X1XQ.. # # ; -.kX,.. . 0 gXgXkX-.. . p N.8.7.b.9.A.P.                                              ",
"                            c.c.*.c./.I./.c.*.*.x././.J.d U ;.y.rX0X!.;.;.;.y.0X0XW.8.8.B.E.                                                    ",
"                            +.i : $.>X>X>XG # X *.vX<XXXB 3 . y.fXgXyX< 1 . qXgXgXtXr.P.P.                                                      ",
"                                    J S V _.|.XXJ.8 B x 2 #.aX,.y i I yXeXaX;.j U +.                                                            ",
"                                    K L K _.[. XH.J H ~ 5 +.yX,.L @.@.eXeXeX>.l K +.                                                            ",
"                                          L 3 # c.2X<X>XF 2 . t.jXgXaX5 2 s                                                                     ",
"                                            P   *.F.x.D.7 L !.t.1.y.,.P   F                                                                     ",
"                                                  * % - < -.kX,.. , 5                                                                           ",
"                                                        V 6 -.>.                                                                                ",
"                                                        +.I q                                                                                   ",
"                                                                                                                                                ",
"                                                                                                                                                ",
"                                                                                                                                                ",
"                                                                                                                                                ",
"                                                                                                                                                "
};
