/* XPM */
static char *unnamed__1___1___1_1624880993[] = {
/* columns rows colors chars-per-pixel */
"72 68 231 2 ",
"   c None",
".  c #050000",
"X  c #0B0100",
"o  c #0B0C0C",
"O  c #0D0A06",
"+  c #130100",
"@  c #120C05",
"#  c #0C001C",
"$  c #0F0818",
"%  c #180513",
"&  c #141315",
"*  c #1C1C1D",
"=  c #1A1816",
"-  c #12110E",
";  c #281706",
":  c #211A1B",
">  c #251B16",
",  c #1F211E",
"<  c #2C2218",
"1  c #332313",
"2  c #3C2B15",
"3  c #3B2D1C",
"4  c #3C2912",
"5  c #0D0322",
"6  c #1E1D22",
"7  c #1A1325",
"8  c #181A37",
"9  c #100E33",
"0  c #201E23",
"q  c #1D222C",
"w  c #1F2324",
"e  c #1F2633",
"r  c #232424",
"t  c #292525",
"y  c #23252B",
"u  c #2B2B2B",
"i  c #292827",
"p  c #332B28",
"a  c #242A38",
"s  c #3A343A",
"d  c #373536",
"f  c #342A30",
"g  c #452C0E",
"h  c #442D15",
"j  c #443119",
"k  c #4E3819",
"l  c #4C3519",
"z  c #523619",
"x  c #55361B",
"c  c #5D2E00",
"v  c #6B3A04",
"b  c #633B09",
"n  c #673906",
"m  c #723E07",
"M  c #623509",
"N  c #422B21",
"B  c #4C3A24",
"V  c #443525",
"C  c #533D2A",
"Z  c #5A3F21",
"A  c #4B3E32",
"S  c #523E38",
"D  c #68420E",
"F  c #72440D",
"G  c #7A440F",
"H  c #664113",
"J  c #6D4412",
"K  c #6E4A16",
"L  c #6C451B",
"P  c #6C491C",
"I  c #734616",
"U  c #754A15",
"Y  c #7A4A15",
"T  c #71461A",
"R  c #734C1A",
"E  c #7C4B1D",
"W  c #5B4329",
"Q  c #45433A",
"!  c #5A4B3B",
"~  c #6A4722",
"^  c #6D4D24",
"/  c #6C4B2B",
"(  c #644927",
")  c #724D24",
"_  c #764E29",
"`  c #6D502B",
"'  c #6E5127",
"]  c #74522B",
"[  c #7B5129",
"{  c #654C33",
"}  c #614E3C",
"|  c #6C4E34",
" . c #6D5133",
".. c #695435",
"X. c #745836",
"o. c #0A1B4B",
"O. c #171A49",
"+. c #081C5B",
"@. c #101C59",
"#. c #052356",
"$. c #2A2A4B",
"%. c #2D3148",
"&. c #34394B",
"*. c #2A2E5B",
"=. c #26355A",
"-. c #353859",
";. c #302955",
":. c #263863",
">. c #353E66",
",. c #4C3E53",
"<. c #463D40",
"1. c #284469",
"2. c #4D4442",
"3. c #4E4D4C",
"4. c #46474A",
"5. c #534C4C",
"6. c #574C4A",
"7. c #4C5445",
"8. c #4D534C",
"9. c #545045",
"0. c #52534B",
"q. c #59524A",
"w. c #4C4E54",
"e. c #484C58",
"r. c #544D54",
"t. c #534E5B",
"y. c #594955",
"u. c #4C5254",
"i. c #4C525C",
"p. c #4D5850",
"a. c #535255",
"s. c #53545B",
"d. c #5B535B",
"f. c #57595C",
"g. c #595857",
"h. c #6B5A44",
"j. c #7B6A58",
"k. c #4C4B65",
"l. c #534D65",
"z. c #4C5262",
"x. c #4B5467",
"c. c #535367",
"v. c #82511D",
"b. c #8A5929",
"n. c #865C34",
"m. c #925E2C",
"M. c #8D612F",
"N. c #8D6134",
"B. c #976936",
"V. c #9A6936",
"C. c #9B6739",
"Z. c #95693B",
"A. c #966636",
"S. c #8E7255",
"D. c #86745C",
"F. c #9B7C5C",
"G. c #91755B",
"H. c #8F6D47",
"J. c #A47A5D",
"K. c #8B7765",
"L. c #967C67",
"P. c #8D7D77",
"I. c #A07660",
"U. c #A5815F",
"Y. c #9A8062",
"T. c #9A8368",
"R. c #968371",
"E. c #8C806F",
"W. c #A28265",
"Q. c #A4846A",
"!. c #A58B6C",
"~. c #B18975",
"^. c #AD9177",
"/. c #CE9B67",
"(. c #C59A78",
"). c #D99C65",
"_. c #FCBA7C",
"`. c #F6B97C",
"'. c #EAB17A",
"]. c #FFC57C",
"[. c #B1938D",
"{. c #BAA68A",
"}. c #B8A391",
"|. c #B59BA6",
" X c #CCA58B",
".X c #C5A789",
"XX c #D2AD8B",
"oX c #C8AA95",
"OX c #D1A898",
"+X c #C6B49D",
"@X c #CAB38E",
"#X c #EEBC8D",
"$X c #E9B887",
"%X c #F4BA83",
"&X c #FCBD84",
"*X c #F5BD8C",
"=X c #FCBD8B",
"-X c #F5B787",
";X c #EEBE92",
":X c #E7BB95",
">X c #F3BD94",
",X c #FDBE93",
"<X c #F5BD9B",
"1X c #C8B6A6",
"2X c #D2B3A8",
"3X c #FDC185",
"4X c #F5C38D",
"5X c #FDC28B",
"6X c #F9C68B",
"7X c #ECC49B",
"8X c #EDCB99",
"9X c #F4C394",
"0X c #FDC493",
"qX c #FDC995",
"wX c #F4C49B",
"eX c #FDC59B",
"rX c #F7C99D",
"tX c #FCCA9C",
"yX c #E9C289",
"uX c #D5C1A9",
"iX c #DEC6B7",
"pX c #EAC7A7",
"aX c #FAC5A4",
"sX c #F4CAA4",
"dX c #FBCAA5",
"fX c #F8D2A9",
"gX c #E6CCB5",
"hX c #F1CBB2",
"jX c #ECD4BC",
"kX c #FDD8B6",
"lX c #EFD1C4",
/* pixels */
"                                                                                                                                                ",
"                                                                                                                                                ",
"                                                                                                                                                ",
"                                                                                                                                                ",
"                                                                                                                                                ",
"                                                                                                                                                ",
"                                      3 j j k z x k k k k k k k z x x z k k B z z l h j 1                                                       ",
"                                    ; X...^ ) ^ ] ' R ' ' R ' ^ ) ) ) ) ' / / ^ ' ) ' X.W                                                       ",
"                                    ; ] ~ ) L T T L U T I K P P ~ ~ T T P P P L L P ^ ( A                                                       ",
"                                < ; g ] L b I U I T I U I I K K T R I T K K P P J H R ' W                                                       ",
"                              3 h.( / T E U U U U R R R R U U U Y Y Y Y Y U U G E F R P W                                                       ",
"                              2 ..P ) L U F v b b b b b b n v v v m v v v v v M F F K ' W                                                       ",
"                              j { ~ ) ) I v.A.B.Z.H.Z.Z.C.B.B.B.C.C.V.V.V.B.C.N.V.M.H  .B                                                       ",
"                              j | / m m I b.>X9X9X9X9X9X0X4X9X9X<X<X9X4X9X4X;X0XqX/.b X.C                                                       ",
"                              h / ~ I v.m b.4X*X4X*X*X5X&X=X3X5X=X=X=X5X4X4X4X=X5X).c ] C                                                       ",
"                              h | L T I m m.*X*X=X5X&X&X&X&X&X=X=X=X=X=X3X3X=X&X6X).c ) C                                                       ",
"                              2 ` ~ ~ ) H n.>X0X&X3X3X_.=X=X5X5X&X&X3X_.5X*X*X5X_.`.'.:X{.                                                      ",
"                              h ] L P R b N.<X>X*X&X&X3X0X,X*X5X5X5X5X&X*X0X*X4X5X5X4XwX1X                                                      ",
"                              g [ m v.Y n n.sXwXrX8X4XtXaX<XrXwXrXwXeXrX7XsXfXpXrXeXtXfX+X                                                      ",
"                              g E G G G I [ J.W.!.Y.Y.W.L.~.!.L.Q.L.W.Q.T.T.R.R.W.F.L.!.j.                                                      ",
"                              3 ^ R J K ^ W + + X . X X . . . . X X X X + X . X . X + X X                                                       ",
"                              3 ( R J K ` Z + + X X . . o = & * d d < + X X . = = > p p t                                                       ",
"                              N ] R K K T _ J.I.G.L.Y.T.h.. O O = = 3 D.T.T.6.X X @ 1 > =                                                       ",
"                              3 X.T U R D N.<XaXaXsX8XfX^.X > - - X p pXhXpXL.+ ; @ X @ O                                                       ",
"                              1 ~ b b H n b.<X<X>X:X;XsX~.+ + . X X g :XpXpXS.+ X X X X .                                                       ",
"                              W H.b.M.N.b.C.-X,X,X0X0X9X(.x  .{ { / X.$X<XwXW.Z ( } } } A                                                       ",
"                              D.aX>X*X0X-X0X&X0X3X3X`.3XeX>X9X#X9X9X$X0X5X9X$X:XpX:X:XpXoX                                                      ",
"                              G.dX=X=X5X=X=X&X&X].].].`.-X,X5X&X&X5X3X`.5X5X9XdX9X9X;XwX.X                                                      ",
"                              S.tX`.3X3X5X&X=X=X%X3X3X3X0X0X5X&X&X5X&X5X=X4X9X;X*X0X*XwXoX                                                      ",
"                              S.fX3X3X3X3X&X=X=XqX0X_.].,X=X%X*X5X3X3X5X*X4X*X9X0X=X*XdXoX                                                      ",
"                              K.rX$X4X4X6X*X0X,X=X&X&X3X5X4X0X0X0X&X&X3X&X5XqX&X_.&X%X<XoX                                                      ",
"                              P.kXfX8XyX9X4X,X,X,X=X5X&X%X6X4X4X4X&X5X_.=X=X&X=X&X5XeXkX1X                                                      ",
"                              d E.D.!.8X*X=X5X&X5X=X&X=X%X3X&X&X5X&X&X=X&X=X=X*XtX(.S.E.9.                                                      ",
"                                    ..8X4X4X*X0X&X%X,X,X0X5X=X=X=X*X*X=X=X&X0X#XrXY.                                                            ",
"                                    X.fX7X9XrXdX9XwXaX<X*X=X=X,XaXhXaX9X6X0X9XwXkXT.                                                            ",
"                                    ! {..X.X XOXoXoXOXOX:X0X<X<XOXOXoX@X(.XX X{..Xj.                                                            ",
"                                    . . X X B C <.7 # % I.hXaXOX% # $ <.2.2.+ + +                                                               ",
"                                    o = 0 : q.0.z.-.*.5 [.iXhX2X# ;.$.z.c.d.f > =                                                               ",
"                                    . - - o a.0.z.&.;.5 [.iXiX|.5 $.%.e.t.y.f +                                                                 ",
"                                    = p.4.w.3.u.i.e.k.e.l.,.,.l.k.k.e.i.a.3.5.5.g.p                                                             ",
"                                    * g.a.a.e.a.a.t.l.l.-.o.o.=.x.z.i.i.u.w.8.u.f.s                                                             ",
"                                    * f.u.i.u.u.r.r.t.c.>.o.#.:.x.w.t.t.s.u.u.u.f.s                                                             ",
"                                    , f.u.u.8.8.6.r.r.x.1.#.#.=.u.5.5.y.t.s.u.8.d.s                                                             ",
"                                    w f.7.8.8.8.q.q.a.z.1.#.#.=.u.9.6.y.r.a.0.0.d.s                                                             ",
"                                    > g.7.8.r.a.6.6.9.s.>.+.+.:.z.8.0.0.0.7.7.7.d.d                                                             ",
"                                    < g.8.8.t.w.r.5.9.a.>.@.@.:.z.8.8.7.7.7.7.0.g.s                                                             ",
"                                    6 c.p.p.u.i.i.i.p.z.>.O.O.=.z.e.i.u.u.u.p.p.g.s                                                             ",
"                                    & 4.Q Q 0.a.z.z.i.c.-.9 8 &.x.i.z.i.i.a.2.Q 2.p                                                             ",
"                                    V K.K.D.! 2.5.3.4.u.&.8 a a e.4.e.4.5.Q j.K.L.!                                                             ",
"                                    h.gXpX2XC > t : , w q e e q r r r r t X oXgXjXR.                                                            ",
"                                    } jXgXuX! = i r r w q a q a 0 y w r f X }.gXgXE.                                                            ",
"                                    9.iXuX+XQ > t r i y y q q y 0 u u r u X }.iXgXE.                                                            ",
"                                      3 2 V @     r r r =     & i 6 *       ; 1 <                                                               ",
"                                                  , r i *       i r u                                                                           ",
"                                                  * i r o       u t 6                                                                           ",
"                                                      &                                                                                         ",
"                                                                                                                                                ",
"                                                                                                                                                ",
"                                                                                                                                                ",
"                                                                                                                                                ",
"                                                                                                                                                ",
"                                                                                                                                                ",
"                                                                                                                                                ",
"                                                                                                                                                ",
"                                                                                                                                                ",
"                                                                                                                                                ",
"                                                                                                                                                ",
"                                                                                                                                                "
};
