/* XPM */
static char *Screenshot_2021_06_29_at_14_20_061624962111[] = {
/* columns rows colors chars-per-pixel */
"72 78 225 2 ",
"   c None",
".  c #010101",
"X  c #090402",
"o  c #03030B",
"O  c #0C0A0C",
"+  c #090808",
"@  c #130B03",
"#  c #161201",
"$  c #191401",
"%  c #19130D",
"&  c #000114",
"*  c #0D0B13",
"=  c #0A0D19",
"-  c #140D15",
";  c #131314",
":  c #1B141C",
">  c #1C1D1A",
",  c #191616",
"<  c #230200",
"1  c #36190C",
"2  c #241D16",
"3  c #361811",
"4  c #261C00",
"5  c #2A251D",
"6  c #3B3314",
"7  c #00002A",
"8  c #121223",
"9  c #181A29",
"0  c #010235",
"q  c #161A34",
"w  c #1A1C34",
"e  c #1B1D3A",
"r  c #17193B",
"t  c #041430",
"y  c #241C23",
"u  c #201722",
"i  c #1C223D",
"p  c #182136",
"a  c #252525",
"s  c #2C2C2C",
"d  c #2A2328",
"f  c #37322C",
"g  c #24253E",
"h  c #2B2A37",
"j  c #332B36",
"k  c #323232",
"l  c #3B343F",
"z  c #302C28",
"x  c #4B2F1E",
"c  c #483928",
"v  c #4D392D",
"b  c #574937",
"n  c #68573B",
"m  c #735D36",
"M  c #1E2644",
"N  c #242944",
"B  c #242A4D",
"V  c #252847",
"C  c #373448",
"Z  c #252E54",
"A  c #2B2E54",
"S  c #2A2F59",
"D  c #2B325C",
"F  c #293155",
"G  c #303250",
"H  c #000067",
"J  c #001B68",
"K  c #00236B",
"L  c #00266A",
"P  c #053179",
"I  c #183478",
"U  c #0B2B70",
"Y  c #2E3464",
"T  c #2C3567",
"R  c #313665",
"E  c #343966",
"W  c #313769",
"Q  c #33396C",
"!  c #3A3D6C",
"~  c #383C63",
"^  c #343C72",
"/  c #393E72",
"(  c #353E7A",
")  c #393F7A",
"_  c #2E3C7B",
"`  c #001947",
"'  c #463C49",
"]  c #423C54",
"[  c #413F67",
"{  c #3B427D",
"}  c #3B4173",
"|  c #544B55",
" . c #695A42",
".. c #6D5B54",
"X. c #766345",
"o. c #746359",
"O. c #494B7A",
"+. c #544F6C",
"@. c #675868",
"#. c #766A7B",
"$. c #A57A3E",
"%. c #836C4C",
"&. c #8B714C",
"*. c #8B7755",
"=. c #947953",
"-. c #8C776E",
";. c #B88E1D",
":. c #ECBC1C",
">. c #ECBB14",
",. c #E8B90C",
"<. c #CBA337",
"1. c #DCB238",
"2. c #D3A92B",
"3. c #E6B826",
"4. c #F0BF22",
"5. c #E2B536",
"6. c #DAAE07",
"7. c #F4C20D",
"8. c #9D8359",
"9. c #B59542",
"0. c #A58B5C",
"q. c #A58759",
"w. c #B58F57",
"e. c #98847A",
"r. c #97866B",
"t. c #AA8F63",
"y. c #AB9265",
"u. c #BB9D6B",
"i. c #BA9A66",
"p. c #B29476",
"a. c #BEA16C",
"s. c #C19A42",
"d. c #C99B51",
"f. c #C9A359",
"g. c #D0A949",
"h. c #C19E6A",
"j. c #C7A36D",
"k. c #CBA56B",
"l. c #CCA76A",
"z. c #D4AC6E",
"x. c #D5AB62",
"c. c #CDAB74",
"v. c #CAA772",
"b. c #D3AE73",
"n. c #D7AF75",
"m. c #DBB375",
"M. c #D5B47B",
"N. c #D8B77A",
"B. c #DCB97B",
"V. c #D4B175",
"C. c #DBB26D",
"Z. c #E0B776",
"A. c #E4BD7B",
"S. c #E2BA78",
"D. c #E9C17D",
"F. c #001683",
"G. c #0F3183",
"H. c #263E87",
"J. c #3B4584",
"K. c #3F498A",
"L. c #334894",
"P. c #3450A2",
"I. c #424C8C",
"U. c #484C85",
"Y. c #465085",
"T. c #495189",
"R. c #54548A",
"E. c #434F93",
"W. c #4B5798",
"Q. c #515A99",
"!. c #7D6A81",
"~. c #4C5AA3",
"^. c #515EA6",
"/. c #445EB1",
"(. c #5563AD",
"). c #5966AD",
"_. c #5762A5",
"`. c #5A66B3",
"'. c #5E6CB9",
"]. c #5B67B2",
"[. c #626EBD",
"{. c #606CB5",
"}. c #6370BE",
"|. c #6E77BB",
" X c #7279BA",
".X c #7076B8",
"XX c #626FC1",
"oX c #6472C3",
"OX c #6974C3",
"+X c #6977C9",
"@X c #6A77CB",
"#X c #867782",
"$X c #917B92",
"%X c #8176A5",
"&X c #968583",
"*X c #8D8C8C",
"=X c #B19991",
"-X c #B397B8",
";X c #A990AE",
":X c #ABABAA",
">X c #D3AC85",
",X c #DDBB83",
"<X c #C9A985",
"1X c #E3BE81",
"2X c #D2ADAF",
"3X c #E1B9BF",
"4X c #E6C283",
"5X c #EBC584",
"6X c #EEC986",
"7X c #EEC888",
"8X c #E8C589",
"9X c #F0C987",
"0X c #F2CC89",
"qX c #F8D18C",
"wX c #FAD491",
"eX c #B99BC0",
"rX c #D1B1DF",
"tX c #DBBBEF",
"yX c #CDCCCC",
"uX c #EBC4DF",
"iX c #F5CEFF",
"pX c #FCD3FF",
"aX c #FFD8FF",
"sX c #EBC5ED",
"dX c #FCFCFB",
/* pixels */
"                                                                                                                                                ",
"                                                                                                                                                ",
"                                                                                                                                                ",
"                                                                                                                                                ",
"                                                                                                                                                ",
"                                                                                                                                                ",
"                                                                                                                                                ",
"                                                                                                                                                ",
"                                                                                                                                                ",
"                                                                '               '                                                               ",
"                                                              ' o O + + * + + o -                                                               ",
"                                                        j : , % . A Y Y e . . . . , , u                                                         ",
"                                                        y & e N i R Q Q A r i r . q e . y                                                       ",
"                                                  : + X . 9 ! Q T E E T Q W W A . A Q - . .                                                     ",
"                                              ' j . e Y D R H 8.2.~ J W E R W Y S R Y . 8 B j j l                                               ",
"                                              9 . 9 A Q T +.o.9.4.*...W Q W W W E Q R e g D r & . -                                             ",
"                                          | o . 8 E Q E K o.:.3.3.7.<.J ! W W T R W W Q Y B A A X X +                                           ",
"                                        ' j . V D R R E K o.:.4.3.>.<.J ! T Y T W W W W Y Y A B V q . O @                                       ",
"                                        - o 9 Y / Q W ! T @.2.<.<.2.9.U ! R W Q W Q Q ! W ! R A G g = 8 9                                       ",
"                                        y N Q R W Q Q W W S . & o . 0 ! Q W Q W W W W W W Y E D . w A D B :                                     ",
"                                        . t / Q Y p e w r 9 . 5 a # * w e r q M Q W W W R Q Q Y g V S e 8 .                                     ",
"                                        | ] S Y F . X X X @ O a s ; + X @ . . 9 D R R E Y D Y Y A Z B - . o                                     ",
"                                  h a |   ;X. : . . > s s s s k s s s s k s o . . g A A A A F F S g . o o                                       ",
"                                  . > l $X@.. * * a s k k k k k k s k s k s a > . u g w w q q p w 8 .                                           ",
"                                  X s s . . O . ; s k s a s s k f f f k k a k a . . . . . @ @ X . @ 2                                           ",
"                                  O d s . . * . + O O + + + ; . . . . . . % O + . + O o 2 x x x % . . o :                                       ",
"                                *.. 5 C ;X#X. , . . . . . % . X.t.0.0.t.n . . . X + + . < 1 1 1 . n y.c . v                                     ",
"                        A.C.m.Z.0.. 5 @.aX-X. d , , ; . . 5 . y.qX7X6XqX8.. 5 ; . + + , 2 > > z . 8.wXX.. , o                                   ",
"                    r X.k.S.5XA.0.. . l iX-X. . | dX:X. a % . t.0X5X4X0X&.. dXyX. a % . X.4XD.n.. =.0X5Xn..                                     ",
"                    7 m k.S.1XS.h.m $X;XpX-X. %.r.yX*X. = c *.i.Z.5X5X6Xu.*.yX:X. ; 5 &.a.7X6X5X=.j.5Xv.t..                                     ",
"                    0 m z.n.Z.Z.m.f.sXpXpX-X. ,XB.. . > . n 0XC.9.S.6X8X7X8X. . ; . z 8XqX5X5X5X0XD.m.b . %                                     ",
"                      <Xz.S.5X5XA.f.uXiXpX-X. M.0XN.N.N.N.B.0Xm.s.d.x.0X0X6XB.M.N.N.N.4X5X6X6X9XD.w.f f %                                       ",
"                        n.1X7X0X1Xf.uXpXpX-X. y.c.0X0X0X0X1Xc.w.$.$.q.z.v.b.7X0X0X9X0X7X5X5X5XS.h.&.. y d                                       ",
"                        n.S.7X5XA.f.uXpXpX;X. . v 4X7X4X0Xn.< 3 < < < . < x 1X5X5X5X5X5XA.m.S.l.. . 2                                           ",
"                        z.A.5X9XS.j.>X2XpXsXrX| .  .u.0X9Xn.. q.m.b.b.m.&.1 4X6X5X6X6XD.u.b n n                                                 ",
"                        z.S.6X6XS.b.u.p.rXtXtX$X@.. *.M.4XB. .v.qX6X5XqXh.%.5X5X5X5XA.j.=.. 7 0                                                 ",
"                        S.A.0X5X5X0X#XF.I P H sXsX. o . ,X7X7X5X5X5XD.5X5X9X5X5X5XD.n.8 . X Q I.                                                ",
"                          >XS.5X5X9X#XI U.O.^ .X.XS g .  .8.4XD.S.D.D.A.A.A.A.A.D.t. .$ G _.J.( R.R.R.                                          ",
"                          c.z.1X5X7X#XG.T.E.I.H.H.E./ C o c j.j.k.j.j.j.j.k.l.k.l.n . h T.@XQ.K.E.I.J.                                          ",
"                          >XS.k.N.qX#XG.}.oXoXOXOXoXXX'.h . . . . . . . . . . . & . 4 {.oXoXoXoXOX(.^ ( ) I.                                    ",
"                            >Xc.z.A.#.H.}.oXoXoXoXoXoXoXQ.W.Q.Q.W.W.T.S U.Q.L.!.;.#.P.{.oXXXoXXXXX'.^.`.^.J.                                    ",
"                              c.v.c.#.L.[.[.[.'.}.oX}.'.oX+X+X+XOX+X'.( '.@XOX=X7.=X|.|.oX[.}.oXoXoXOX+X[.E.T.                                  ",
"                                    R.K.K.I.K.J.I.@X(.( '.oX}.oXXXoX`.^ ^. X1.3.5.3.1. X(.^ `.+XoXoXXXoXOX@X(.}                                 ",
"                                              U.K._.E.( (.'.oXoXoXoX`.^ (..X3.>.:.7.5. X/.( W.~.~.`.oX^.~.~.E.(                                 ",
"                                              U.{ { { J.Q.).oXOXXXoX`.^ (.|.g.5.1.1.g. X(.} O.O./ Q.OXR.O.O.O.O.                                ",
"                                                    U.J.~.).oXoXXXoX`.^ (.oX.X.X|.|..X).W.I rXsXH.G.F.<X8X4XB.j.                                ",
"                                                    Y.K.~.).oXoXoXoX'.( `.XXXXXXoXoXXX).W.P 2XrX-.e.&X8X9X0XA.l.                                ",
"                                                    Y.J._.).}.|.XXOX`./ ).OXXXoXoXoX}.(.W.I y.l.l.S.0X8X8X7Xm.j.                                ",
"                                                    W.I._.).).).^./.P.P P./.).).).).).).Q.I p.C.8X4X5X7X5Xz.m.l.                                ",
"                                                    [ Q K.Y.K.Y.I.*Xe.*.e.*XO.K.Y.Y.Y.T.O.J p.B.8X7X7X1Xm.z.j.                                  ",
"                                              d + * @ $ # # # $ $ 6.7.:.7.6.6 . $ $ $ # 4 . v.0X4X5X7Xz.k.m.                                    ",
"                                              y . . ; > > > > > 5 2.4.3.4.3.6 = > > > > 5 . v.0X9X7X9XS.j.                                      ",
"                                              y . . 8 9 i g i N g 9.s.s.g.9.l p g i i g s & a.5XS.A.A.n.                                        ",
"                                              y . . 9 i T } Q } W L L U L L Q } } } } } } 0 t.l.j.l.b.                                          ",
"                                              y o 9 Z T Q Q T _ T } } } } } ^ Q } T } } D t | o.                                                ",
"                                              y = M T ^ } } } } Q } Q T } T T T _ Q _ } D G ` 0                                                 ",
"                                              y o p F _ I } Q } Q T D M N M Y } } } Q } _ Q Z i                                                 ",
"                                              h i D T ^ Q } T } T Z B       M Z T Q ^ Q T _ Z p                                                 ",
"                                              C Z } } T Q } E E D N N       i F Y Q ^ } Q } Z M                                                 ",
"                                              G M } ^ ^ ^ Q } D i               N D W Q Q } Z p                                                 ",
"                                              G M } I } } T Z Z                   A F ^ ^ ^ Z i                                                 ",
"                                              G M } Q T Y D p                     g M Q W W Z w                                                 ",
"                                            ; O * * = * * =                       : * * = * O * *                                               ",
"                                          j . . . . . . X .                       : . + . . . X . :                                             ",
"                                        9 . X . . o + . o o                       - . + . . o . o X .                                           ",
"                                                                                                                                                ",
"                                                                                                                                                ",
"                                                                                                                                                ",
"                                                                                                                                                ",
"                                                                                                                                                ",
"                                                                                                                                                ",
"                                                                                                                                                ",
"                                                                                                                                                ",
"                                                                                                                                                ",
"                                                                                                                                                ",
"                                                                                                                                                ",
"                                                                                                                                                ",
"                                                                                                                                                "
};
