/* XPM */
static char *safe__1___1_1624804449[] = {
/* columns rows colors chars-per-pixel */
"72 72 234 2 ",
"   c None",
".  c #030301",
"X  c #0B0400",
"o  c #040900",
"O  c #0B0A00",
"+  c #03000B",
"@  c #0A060A",
"#  c #130B00",
"$  c #140703",
"%  c #171604",
"&  c #040011",
"*  c #0C0B15",
"=  c #131314",
"-  c #131219",
";  c #1B1B1B",
":  c #1B1715",
">  c #0E1112",
",  c #241D00",
"<  c #291B1A",
"1  c #1D210D",
"2  c #282701",
"3  c #332D00",
"4  c #393801",
"5  c #27251B",
"6  c #37371A",
"7  c #1E2524",
"8  c #242424",
"9  c #2B2B26",
"0  c #2C2C2C",
"q  c #282826",
"w  c #34332B",
"e  c #2E2B32",
"r  c #282533",
"t  c #302C33",
"y  c #343434",
"u  c #393935",
"i  c #363539",
"p  c #3A3A3B",
"a  c #38373A",
"s  c #30302D",
"d  c #403D00",
"f  c #443E2D",
"g  c #3D433B",
"h  c #3C4623",
"j  c #4B4500",
"k  c #474504",
"l  c #585503",
"z  c #514D0F",
"x  c #645C01",
"c  c #645F1B",
"v  c #6A6704",
"b  c #736D07",
"n  c #787707",
"m  c #736A19",
"M  c #75751C",
"N  c #6A6B0F",
"B  c #4A4728",
"V  c #575527",
"C  c #48463B",
"Z  c #595839",
"A  c #51512E",
"S  c #625A29",
"D  c #686429",
"F  c #787636",
"G  c #70702E",
"H  c #393941",
"J  c #423A45",
"K  c #3F4343",
"L  c #444444",
"P  c #4A4A44",
"I  c #4B4B4B",
"U  c #494648",
"Y  c #5A5A43",
"T  c #53534D",
"R  c #585948",
"E  c #544E55",
"W  c #545454",
"Q  c #565A54",
"!  c #5B5A55",
"~  c #55545A",
"^  c #5A565B",
"/  c #5C5C5B",
"(  c #575957",
")  c #4E5051",
"_  c #615E5C",
"`  c #615C54",
"'  c #5D6155",
"]  c #5D625B",
"[  c #57645B",
"{  c #5F6446",
"}  c #62635D",
"|  c #666758",
" . c #72704D",
".. c #5D5D62",
"X. c #595C68",
"o. c #625D66",
"O. c #5E6263",
"+. c #5F616D",
"@. c #636363",
"#. c #6B6C66",
"$. c #646469",
"%. c #666B6B",
"&. c #6C6C6C",
"*. c #686866",
"=. c #6E716B",
"-. c #71736D",
";. c #777465",
":. c #6D6D72",
">. c #6A6975",
",. c #706D76",
"<. c #6E7172",
"1. c #737473",
"2. c #7C7C7C",
"3. c #777877",
"4. c #81790F",
"5. c #877B2F",
"6. c #817B7A",
"7. c #7C8C34",
"8. c #7B8079",
"9. c #9A9508",
"0. c #888719",
"q. c #938E19",
"w. c #9B9719",
"e. c #898908",
"r. c #A39B0A",
"t. c #A29A16",
"y. c #9CA10A",
"u. c #A6A209",
"i. c #A7A518",
"p. c #B6AA17",
"a. c #B6B317",
"s. c #B2B012",
"d. c #8A8B25",
"f. c #878729",
"g. c #999627",
"h. c #848535",
"j. c #969739",
"k. c #8F912B",
"l. c #A59B27",
"z. c #A49836",
"x. c #9EA322",
"c. c #AAA828",
"v. c #B4AB23",
"b. c #B8B527",
"n. c #A9A939",
"m. c #B9B636",
"M. c #B1AF2C",
"N. c #C1BA29",
"B. c #BFC417",
"V. c #BFC230",
"C. c #C9C719",
"Z. c #DAD51A",
"A. c #D5D018",
"S. c #E4D81B",
"D. c #F1F017",
"F. c #C7C626",
"G. c #D3CC28",
"H. c #DBD92A",
"J. c #D9D626",
"K. c #C7C738",
"L. c #D1CD37",
"P. c #CED239",
"I. c #D9D637",
"U. c #E3DC27",
"Y. c #E1D936",
"T. c #DCE02D",
"R. c #E9E628",
"E. c #F9F726",
"W. c #E7E735",
"Q. c #F8F738",
"!. c #F4EE37",
"~. c #8F8E4C",
"^. c #AA9F46",
"/. c #A9A846",
"(. c #BAB858",
"). c #B4AF4B",
"_. c #81827D",
"`. c #888A7C",
"'. c #96947C",
"]. c #AFAD70",
"[. c #C1BE61",
"{. c #BFC443",
"}. c #C8C946",
"|. c #D7D747",
" X c #C9C558",
".X c #D5CC57",
"XX c #D7D659",
"oX c #D1CE45",
"OX c #E2DA4F",
"+X c #F7F546",
"@X c #E8E85B",
"#X c #F1EE51",
"$X c #DCD863",
"%X c #C5C76B",
"&X c #E1DA6A",
"*X c #ECEA64",
"=X c #DBE06A",
"-X c #7B7A82",
";X c #827E88",
":X c #7E8083",
">X c #848484",
",X c #898A85",
"<X c #85848B",
"1X c #8B8B8B",
"2X c #888789",
"3X c #91928D",
"4X c #9C9B8C",
"5X c #8B8B91",
"6X c #918F94",
"7X c #949494",
"8X c #999A94",
"9X c #9B9B9B",
"0X c #969698",
"qX c #8F9395",
"wX c #A09B9C",
"eX c #A8A89B",
"rX c #9D9AA1",
"tX c #A3A3A3",
"yX c #ABABAB",
"uX c #A6A7A7",
"iX c #ABACB7",
"pX c #B4B4B4",
"aX c #BCBCBC",
"sX c #B8BBB9",
"dX c #AFB0B0",
"fX c #9DA29B",
"gX c #C2BEBB",
"hX c #BCC1BB",
"jX c #C0C2BF",
"kX c #BEBCC1",
"lX c #C1BCC0",
"zX c #BCC5C3",
"xX c #C2C2C2",
"cX c #C5C5CB",
/* pixels */
"                                                                                                                                                ",
"                                                                                                                                                ",
"                                                                                                                                                ",
"                                                                                                                                                ",
"                                                                                                                                                ",
"                                                                                                                                                ",
"                  y y y y y p y y a y y y a y y a y y y y y y y y y y y y y a y y i y y y y y y y y y y y y y y a p y a y y y                   ",
"                  y y 0 0 0 ; . . ; y y 8 ; 8 0 0 0 q 8 8 8 q q 0 0 q 8 8 8 q q 0 0 q q q q 0 0 0 0 e s s 0 0 0 0 q ; ; 0 y a                   ",
"                  p 0 L U p &.2.2.^ p I / &.@.I L U / ( / / / W L L W / / ( / / I K U W / / U U L U U U L L U U L W @.&.I q p                   ",
"                  y 0 L @.W tXxXjX2X/ / 3X9X7X*./ &.>X2X2X2X2X_...] 1.2X2X2X1X1X&./ @.2.1X>X*./ *.@./ / O.@.@./ / 8.9X9X&.8 y                   ",
"                  p 0 L @.U 9XsXaX3.I ~ 1X9X7X/ I / >X2X>X>X:X1.W ( &.>X>X>X>X>X&.^ / 2.2X>X@./ W ~ ( W ! ../ / ) 2.9X9X:.; p                   ",
"                  p 0 / 2.1.uXaXzX3X1.6.;X_.2.3.>X2.2X8.2XtXtX7X&.<.3.2X2X3.1.1.*./ / 2.>X_.@./ ] 2.2.3./ / / &.@.&.3.>X@.q p                   ",
"                  p ; 1.0X7XyXaXsXtX9X9X@.W / 7X0X3X2X-X3XsXhXyX;X>X>X>X>X*.( ( / ( / >X2X2.o.W *.0X9X7X( / o.&.&.@./ / U 0 y                   ",
"                  y = &.9X9XyXxXaXwX1X7X&./ / 6X0X7X,X2X9XaXlXyX>X1X2X2X2X1./ / ^ / / 2.2X>X*.( @.1X9X7X( @.} &.:.@./ / U y y                   ",
"                  p ; 1.9X7X1X7X1XyXyXyX1.W *.7X7X7X<.#.1.2X1X2X#.&.&.%.&.*./ / @.*.@.<.1.3.3.-.3.2X1X1X/ / / @.@.@.O.@.U 0 y                   ",
"                  p ; &.9X9X&.W U uXaXsX1.T %.1X8X1X/ ( Q W W ) / ! / ( ( / / ( *.<.#.&.&.&.;X2X2X>X>X-X/ / / ! / / / / U 0 p                   ",
"                  p ; &.9X0X3.W ^ wXhXhX;.T O.qXrX3X' ' / ] [ ] } @./ _ ' [ [ [ %.=.-.=.,.,.>X,X_.,X2X;X/ ` } ` / / / ..U e a                   ",
"                  p q ( 3.&.0XyX9X7X6._.8.3.-X<.:.#.| Q @.8.8.} q y y t 0 y y 8 Q ] _ } o.>.:.1.3._.5X<X/ _ } *.*.*./ @.I e a                   ",
"                  a 0 U / U 9XkXcX-XU ) 8.,X:X+.~ / ( / @.<X2X3.. . . @ @ . + + ) ( ! _ o.) <.=.1.2.<X;X/ ! *.&.&.*./ / U 0 p                   ",
"                  y s I @.W 9XxXkX-XE o.8.>X<X+.o.^ $.^ %.<X7X| X X X X X $ X . C *.` / / @.%.%.1.>X2X;X} / @.<.:.*.! ! P 0 p                   ",
"                  y 0 U _ ( >X9X9X0X3X3X=.} *.! _ E 0 t r J % h.}.V./.f.0.n.K.}.F X w < 9 5 [ [ @.,.3.&.' / O.<.<.*.' | P s u                   ",
"                  y y U / W >X9X0X7XqX8X| T ! ! ` ` X X X X X 7.|.J.F.y.r.F.I.|.f.X X $ . o R [ / :.&.@.} ] $.:.<.@.R ' C 9 u                   ",
"                  K 8 ~ *./ >X7X0X7X0X3X;.! | | _ Y 4 3 3 3 O M XXK.b.9.9.N.}.XX5.X 3 , 3 4 Y ' ( =.1.%.@.! O.<.<.%.' ' C 9 a                   ",
"                  y . 6.sXsX9X;X2X=...@.tXaXeXC X Z &X*XXXq.d.7.d j n t.r.n k 4 d.n.n. X X(.A . w T @.../ / $.2X:X<.] ' P 0 a                   ",
"                  p . 2XxXaX9X2.>X,.~ X.iXkXkXw X x #XQ.U.y.x.d.o . x l.t.v $ X k.V.i.G.H.|.j . X { ..o./ } } 2X6X-X/ ! P 0 a                   ",
"                  p . 1XlXaX9X2X2X&.X.X.kXiXtXA 4 v E.D.W.e.k.G # % m z.l.m X . 7.c.y.P.Z.G.v k z Z ^ ~ _ T =.>X-X>./ ] I 0 a                   ",
"                  p . 2XjXsXtX3X4X;.E o.t 1 3 (.{.B.D.E.oX$ , f o.Y 5.z.g.h.Z O.h % # z.p.s.H..X%X3 . w ! _ _ ^ +.O.~ O.I e a                   ",
"                  p . 2XlXsXtX3X'.;.^ | o o o ).m.B.Q.+X$X$ $ , Z V 4.g.l.4.V { , X # j.m.v.L.|.%X2 X % ` ! ^ o.~ ......U 0 p                   ",
"                  p . 1XaXsXuX9XwX&.I Y M n n /././.$X$X Xx b b d.0.w.y.i.0.m M N N x z.^.^.(.[.].l d V  .#.&._ @.@...o.I 0 a                   ",
"                  p . 1XaXaXsXaXxX@.+ X $X#X*Xj O O V j q.XX|.I.L.P.F.s.i.c.g.k.V.|.=Xd.D F O O 2 j.j.~.'.3X2X,.#.*.....U 0 y                   ",
"                  p . 2XaXaXaXhXzX+.& # |.!.*Xl X 2 #.Z d.P.A.U.U.I.G.s.p.c.l.t.J.F.|.j.{ ;.5 O 4 j.g.j.].3XrX$.#.| / ..P 0 p                   ",
"                  p . 1XxXaXuXrXuX~ * . I.Q.OXl . 5 ..Y d.P.H.C.a.b.l.q.g.0.5.4.s.F.{.h.| &.; o d n.c.c.6.;X3.<.;.| / O.P 0 u                   ",
"                  p . 2XjXaX2XL W 0 + X F.U.K.l . t X.R f.I.H.a.O @ X X X X X X 7.9.q.F ` / q o j .XT.m.. . 0 1.<.O./ ] L w y                   ",
"                  a . 1XaXsX1XW *.y + O b.Z.K., @ X Z z 0.P.H.v.O ; * X . @ - . n w.t.m A R . . 4 oXW.K.o + p #.-.@.[ [ C s y                   ",
"                  p @ >XpXpX2XT ' s & . I.D.R.r.9.q.t.t.i.H.U.b.. % q J g 8 * . g.N.v.t.4.5.m v n V.B.M.O . u *.@.O.[ O.U 0 i                   ",
"                  K ; &.1X7X3.T } y * . P.E.E.S.H.I.N.N.N.J.S.b.o o f @.' g o . m.Y.I.s.z.z.l.l.r.s.a.g.. + s / ] Q ] ] E t H                   ",
"                  y ; &.tX9X3.L T 5 & O OXE.E.S.U.I.F.b.C.S.A.v.o o L / [ g o o M.T.J.u.w.l.w.t.c.v.a.g.. & e / ' Q Q / I e p                   ",
"                  p 8 &.1X2X7X8XfXR + . K.S.S.r.9.q.g.q.s.U.!.N.o > q L g 9 > . b.J.Z.y.n h.m v v c.u.g.O & a @.! #.<.3.` < u                   ",
"                  p ; *.2X6.uXjXhX*.+ X c.a.v.$ o . Y d q.+XQ.P.O 7 * + . $ < $ b.H.J.7.A ' . . , q.r.q.. + H / W =.5X5X} 5 u                   ",
"                  p ; @.2X3.uXsXhX#.+ . v.N.).k . t X.Y g.+XQ.A.O X X X $ $ $ $ p.H.L.d.Y X.r . 3 g.r.0.. & e / T =.<X1X@.5 u                   ",
"                  L . 2.dXyXpXaXsXO.+ O K.W.OXk . 8 ] Z d.T.W.Z.a.m.c.b.b.p.m.p.A.S.L.5.Z / 7 o 4 z.c.g.. . P ,X`._.,.-XX.0 i                   ",
"                  p . 2XxXpXpXaXhXO.. O |.+X#Xx X 5 | V 7.|.A.Z.J.H.U.U.Z.D.H.J.U.G.|.q.D | 1 o 4 /.c./.O o R fX8X,X>.,.~ r i                   ",
"                  p . 1XxXsXaXpXjX#.. X XX#X*Xk $ $ S j q.oXoXI.L.H.A.S.Z.A.T.P.|..X$X4.j S % . 4 /./.~.. o P 4X8X`.*.%.E e H                   ",
"                  K . 2XaXsX0X3.6.} I Z M 7.n XX&X$X.X&X.Xx b N f.4.p.S.Z.s.7.h.m b x (. X(.j.7.7.l z Z W ) | `.,X3./ *.E t i                   ",
"                  p . 2XlXlX,XU ^ ..O.[ o . # @X!.E.E.Q.OX# o % R z t.H.J.y.k R , X $ ).I.I.x.x.k.o . : X.X.#.`._.1.Q / U 9 f                   ",
"                  y . 2XaXaX,XE o.....O.s o k &X#XD.D.E.OX$ 2 B $.C z.H.J.c.A +.y , $ m.H.A.i.k.~.2 . e +...] 8.2X3.Q ' P 9 p                   ",
"                  p = 3.wXwX2.^ _ 0XsXiX*.T Z V l n Z.S.S.W.OX{.o o g.Y.I.l.O % F d.9.p.u.i.j 3 f Y ! I O.~ &.2X2X3.^ _ I 0 p                   ",
"                  u ; <.0X9X1.` T tXhXhX3.R ! X . d |.G.U.!.Q.}.o o w.I.I.q.X X F n.w.9.u.d.4 . X R _ _ O./ _ 5X<X3.~ _ I 0 p                   ",
"                  p ; &.9X7X3.! Q uXjXpX3.! | 6 . V [. X}.@X*X{.O @ 9.T.H.9.# 4 5.~.k.k.k.~.B , w ! @.} / @.@.>X2X,.~ } U y y                   ",
"                  p ; &.9X9X3./ Q tXsXsX3X_.>X/ R Z 3 2 4 4 2 N /.c.F.J.J.F.w.).c $ 2 % , 2 ;.`.2.,X2X2.1.%.*.1.1.&./ ] U 0 a                   ",
"                  p ; &.9X7X3.I ) tXhXsX7X2X>X/ / ` o . . O # c ).a.B.T.T.B.a./.c X X X . . 6.,X,X2X>X>X&.&.&.&.&.*./ o.U 0 y                   ",
"                  p ; &.0X7X2X1.%.fXsXsX1X-X:XO./ W p C f 5 # Z ^.w.M.}.V.c.k./.D X q t i e 1.;X3.2.>X2.*.&.&.%.*.@./ / I 0 p                   ",
"                  a q @.1X2.tXpXkXtXqXqX%.W O...O.O.:X1X2.( >.P . X B  . .B X X B | ! :.>.:.$./ @.&.:.&./ / ^ / ] / / / U 0 p                   ",
"                  a q _ 2X3.yXcXkXrXqX0X=.W ( ^ ( / 2X,X:XO.E ) + @ U ,.&.U X . ( ( @.%.<.&./ ~ ~ &.*.*./ o./ / ^ ( / o.I 0 p                   ",
"                  y ; *.6X1XfXdXiXuX9XqX<.=.&.;.#.1.-.8.1.#.<.@.0 0 I 6.3.^ i y T @.W #.3.-.1.>.1.2.3.3./ / @.1.1.&./ O.U 0 y                   ",
"                  p ; 1.9X7X7X7X6X0XqX0X9X9X7X8X8X3X] T #.fX9X2X_ ^ 1.,X>X2.,.,.$._ } 3.,X_.7X9X7X7X9X1X] ! 3.7X9X2./ ] L s a                   ",
"                  y 8 $.9X3X7X9X9X0X8X9X7X3X6X0X8X1Xo.W %.3X7X>XE / -.`.,X-.#.%.$.....-X2X,X3X8X9X7X9X1Xo./ &.9X9X>X( @.I 0 a                   ",
"                  p = 1.yXuX7X>X6._.>X6.wXtXtXwX0X1Xo.~ 1.uXuX4X%.&.1.1.1.3.3.2.$.^ ..>.2.3.1X3X3X1X1X2./ / %.>X>X-./ / U 0 p                   ",
"                  p . 1XaXzX1XU _ ! T W dXcXpX;X-X;X....2.kXhXyX_.>X1.~ X.,.<X5X:.! ! Q _ ( 3.;X2.@.$.&./ ! / ! / / @./ I 0 y                   ",
"                  y . 7XxXaX1XP ! ! _ _ dXlXlX6X6X;Xo.W 2.zXgXdX_.,X3.@...-X5X<X&.' | [ } / 2X6X2X1.*.&./ / o./ W / / ..W 0 y                   ",
"                  p ; @.3X>X>X-X2.@./ } 1X7X7X*._ _ W p / 1X,X3.} @.! P L ( @.*.) P P P T I @.O.@.2X:X3.( / &.3.>X1.p I p 0 p                   ",
"                  t y q . . 3.9X9X1./ W W I T 9 8 < 0 w 9 . . = 8 < q 9 q q 8 8 y q q 9 9 q 8 = p 7X9X7X( ( <.wX9X3.= e y 0 p                   ",
"                  p y 0 L q 1.9XqX:.E / ` } } w w p u y H i H i i H a a a u i i a i i g u y u s L 7X9X2X/ W &.7X9X3.; p y y p                   ",
"                      q y ; 2.0X7X1X>X>X*.! Q p y 9 > > - - - - - - = > > = = = > > - > > > 0 0 U 3X9X0X>X>X>X1.3.*.q p ;                       ",
"                      = p ; 3.9X7X7X9X9X%./ / u y 0 . . . . . +                             0 0 K 7X7X7X0X7X1X( / U 0 p :                       ",
"                      ; y q 3.9X9X7X7X7X&.( / p y t . . .                                   y s U 0X9X0X8XwX1XW @.U 0 a =                       ",
"                      = p 0 U / ! ~ / / U p L y y 0                                         0 y y ( W ~ ~ W ( p U p 0 p ;                       ",
"                      ; p 0 0 8 8 8 q 0 0 0 s 0 y 0                                         0 a s 0 8 q q 8 0 y 0 y 0 p ;                       ",
"                      = y y y y y e s y y 0 y y 0 q                                         q 0 y 0 y y y y y 0 y p y y =                       ",
"                                                                                                                                                ",
"                                                                                                                                                ",
"                                                                                                                                                "
};
