/* XPM */
static char *floor_hand_painted_texture1624803635[] = {
/* columns rows colors chars-per-pixel */
"72 72 78 1 ",
"  c #140808",
". c #1B1412",
"X c #1E1A1C",
"o c #231A17",
"O c #221D1D",
"+ c #27211F",
"@ c #28231F",
"# c #261F22",
"$ c #262223",
"% c #292525",
"& c #2B2826",
"* c #2A2629",
"= c #2D2A2C",
"- c #312D2E",
"; c #2F2D30",
": c #312E31",
"> c #343234",
", c #3A3536",
"< c #363539",
"1 c #39363A",
"2 c #3B3A3D",
"3 c #413D3F",
"4 c #363742",
"5 c #373943",
"6 c #3D3D42",
"7 c #413E43",
"8 c #3E4146",
"9 c #3F4249",
"0 c #434145",
"q c #4C4847",
"w c #44454A",
"e c #49464B",
"r c #46494E",
"t c #4B494E",
"y c #504D4F",
"u c #444750",
"i c #474A51",
"p c #4C4D53",
"a c #4C4F59",
"s c #514E54",
"d c #514F58",
"f c #4D5057",
"g c #4E5259",
"h c #535156",
"j c #585355",
"k c #54545B",
"l c #59565D",
"z c #55585F",
"x c #5A595E",
"c c #565760",
"v c #595760",
"b c #565961",
"n c #5C5B63",
"m c #5E5E68",
"M c #605E65",
"N c #615E69",
"B c #5F6166",
"V c #5E616A",
"C c #616067",
"Z c #63636B",
"A c #68666D",
"S c #67686F",
"D c #69696F",
"F c #666670",
"G c #696770",
"H c #676971",
"J c #6B6B74",
"K c #6D6E79",
"L c #706F77",
"P c #6E727A",
"I c #717177",
"U c #72737C",
"Y c #76787E",
"T c #747680",
"R c #767A83",
"E c #7A7C84",
"W c #7E8187",
"Q c #7D818B",
/* pixels */
"xxjhhhjhxh1&==-3nBnxxxzxfhjhjjzjjfyyhhhzhjzzhhjyykjzbx0,&&=*aZCZANANNMxx",
"xvzjhhhjj>%;>-+,xihBxxxkkxjjjjjzzjfhjjjzxxjjjhyyyyjjq3-&&&%*:pGZANNANlxx",
"nxlzllxt:==&22=$>:,znxxxxxxzjxxjjzjhjjjzjjjjjjhzhyyq=$&==8>&*XkGAANNNlxx",
"MxxCCBq:==>wi8<$%:1jBnnnxnBBxxxjfjhjzfhBxxjxzjxjjjq&&:6fgBb:***yMGAMZMxM",
"xCZSB3&;=,fggw><-%1hxCCCBxBBBxxjjjjxByzBxxxxjfxxy3&=<8BBbkbl4:=*7MMAZZMx",
"MCSDrO;&1rffgw>kr:&&0CSZCBBCBxjxBxBBBSBBBBMjByxx8&&&wbbgaggbn7>::7sMAAAM",
"MZyh>&&>fffff81bk8>;=qIHJSSBxxCCBCBBSBxjDDCBCxp3&><pzgfripppcc7<::3dKAAM",
"CC3,-->ifffif23zffw>&&pMBBBCCCCDBz8>3fxjqDDBBj>@&2zbzfiirwuapagp6:=yGNGN",
"Sx0=;>fgfffif32zfgkr<=$kDSCSZDZM3<&&=<pxhtyyw<&19abcggi9w8rfgfgzc6::wNGA",
"xr&;<ibgffifg8-ghfgki2=$qJDCGZZ7&=&&*;>hMxMj;&<zbbbbbgfifirfffffzgw,:eNN",
"q=&<9gbggggigr:gfrffzk1=$wPYJB7*=&11=*:=3Mh-;5bBbbbggbggfiiifffhfhkw:=dM",
">&>6rggggzgfgq1nhffhfkx2&o0Bf>#=&6qw2:*--,,&;bVbbbbbbbbcfiirhfhfhghf1::e",
"%=3fggbgzgggh,2Bxzfiiizf>>$;>-*-wr7000>%--%0gazBbbbbbmbbbgifhghhdhakm7:*",
"=:fkgggbzzkf>&-hBkirwfizi<;>=*>et806777-&$*pkai9cbbVVbbmbgkgzgffhhhhnp:=",
"::ifgbgbgBg20t-;hkfffifzz8>==*et067772e,=%>wfafiiaacbBggbbbbggghhaanb6;>",
">;igggbgba0yzkw:>fzkkffgf1>*=:psete00ep2%=::9gigaiiafgfrfgggffzkvvnFu;>:",
"=&8ffggbhwagkch6>hVnnkfz0>=3>-7ddetets7-*=>:2gggf9i99bzg9gbgg9gbdnFm;571",
"<=:1fggipflkckcp26lVZBbf>=>03->372wdp6:-%wv6;ubcfafi9zgggg9gbgggcdd74w77",
"<<&:8f9ifggkgggchiwwkBz,:*=1,:>:=21p7=:-,nHh6<pvbigi9bzgz9zggbg9dd47wsNu",
"p82&@>9gggggaggagkgw:11->:6eelq,,::6:-*0CCvgh6<dbfgg9gbzgbbbbggbp477evNn",
"Zz8,;;&9gfgffgggggfgw=-:1pmlnCCp3----&7khhshNt7<fgiafgbbzzfzbgg94777vNvN",
"CZBg92&&8fgfggkgzggf,=>=tFmnvvBn2,>&:0jdadznvsv78bgfgbbBzzzzgbf547dNNNvN",
"MxSPz8<&&9ggzgkgzzg0->0qbvhhlbvvvd3>ehaddplkttde<iBzbbVBBBbbz9<<7dNnNvvn",
"xCCJPSb8=;rggBbbbg0>>>BZlchdfllhdj77dddhdphknFFN9<9HVgVVBbbbf<897dNvvnnn",
"xCCZZGZvh>=rmvnbg31>tMClkkhfhlappe7pddssiuydNNZHNt>dmcNnBBBr,2fxddNcvncv",
"xnmnZNKZHB=>07gu1>>fDZMjzlhhhhpphdsepeeettscnnnnNM714FNNVBg18wfkuvmvmcvv",
"lnnvnGGUTEk>::,=>ySPACCvcchhddddhkddptptepknnnklNNs74uAFV9<wgnxpumccvvcc",
"cxnvMAGKYEYs7-%,tnEIDCBBvchklddkhkddsutetdvvcvkddNGde:1t8;1rFSlhmmcmvcvc",
"lcvvvMGGKIEKp=$70yYYZCnnnchhvkkkjkhhdspudkvvvvkllvNpt7###>>aJmbmNmccnvcv",
"lnvMvlMAKIKh,$%-2qEEDDnnvcdavvvkkkklvvlddvckcvdddvnt77*>4>>7FVmFmmmbnccc",
"kvllMnvAKHt:>,:&:=lWYDnnvbkdkvckdddvnnnvldkdldlklvZd7-;dn76>6pFJNmmnncck",
"lcksjvMZl>$:htqt3:=qUYDCvbkdhcvkjddmnnvvvvkkdlkdnNdt4=7vNNd7<*cKTFnmnckh",
"kkkhxnnMe*:7lvlnj0,-qJIZvvckcvlkdpdmmcvckcddklhvNp7611vKANMj7,*7ap7dZvbm",
"dkhlnjnh%=2dlhjllde>,lYLMkcdcndhsakncvvccccddllNh774qs7JNMlMl3-7eee3kZZl",
"kdhMMv7%*2slsyshleq1>1MJZvvcccdddkckckkklkhkklvp7717lNsdMvvMl3-30lkp7kaa",
"dhnnMHdO>7ljsepjde02>>0ZAnvvvddkdkkcvvkcckcnnle6747MZZZNMMlvv7--0st7wlhh",
"lvMmZZvO>eljhyslje3,27SLMllvvcdckddlvvvcvvvhalpe77eMAGZZNNMvM73-7phhvvkh",
"MnNNGNn6%7Nlsjshve<,,lIZnMvkkkldkckdkvnvvllknMnkd747nZGFAMvlN737tnCnvvnn",
"NNNZKZld&OdAMxxCh>1<tKGMnnnlkdhkvcklhdklccccllvMNpt<,hJFNNld737snHncvmMn",
"nnZZHNxyq-&dLDDZ0<0vYKnnMnvllkkddvvkkkddhhllllvvGndw<7dZGNNj3777HTnvvnMN",
"mMNGFnZNpe-=yCl01wqSISBnMMjlvvlppvvhdkvkddhlvkvnFTVa7177vNG7777lmJnvnCmn",
"nNFFFNZFki3:-::-pdAJJZVCMMvjvNllddnvkddlddkhklvnKTRFd7713777ldALvvnnmCnm",
"mZFZFZZFFmw*=-=>wCWUHZCZNNMvMNvvddvvdcddddhddvnnVFEENc:4-:77vGTNvvnNnmmn",
"nZFNmNZFHThX,,&11MEYKmZZNMvNMnnvdplvckvlhddkdjvNmFTTNv,:-:777GGNNNnnnnvn",
"mZZVNVFHHPp.%=%=>lYUIDZCNlnNnMMndpslvklllhhdjddvmHTEG7:-**>:7ETvZNnnnnnn",
"mvmZZZFFJSo%>>:*27ATUILJAnlnnnnnlssvvvvvvvdddjlhvKKTG44::7,77dTGNNNnMnvn",
"nmFVVFFKP,O;260<:26MDILLKAnnNZmnMldvvvnlvlddllMAFKJF747dd777777EKNCNnnnn",
"CZZZZZTPi+=:89071::37MYULKGnNCCNMnMllvvMMljvMNNKYPmw77dNGNvvd77vTGZNmNmm",
"ZFZZJDCw@>25999881;>1wZYJKKCMZZNNNMdjMMMMxxMZHIRRZ;58wxnnVnnknh<pdlmNnmN",
"FZZJYS@@:2829998281><3aYIKKGZZZMJJNMNNMNxMMCJZnAn<>7rkvbbbbbbbvp:>kJZCZF",
"ZZFKC&=6r6,69r9988w2&=*6UUGZZZCZLUNdsNANMMMAAnds>=6akzbbgggzbvvve2pmKJFZ",
"CAK7:;1qggr8iiiffirw2=;$0ZJHZNZKUl=o#7NJNMAMMld<=,allvblggggkbbz04:1dFFZ",
"KHh>>:88ifii9fiifffi8>>=%2KIIKIEj :77##7ANAMnl,;;wlzkbhgafggggbbge1:<pHJ",
"le=><288988irqfffhfraw<==#kKUQQl#,slM7:#7jjjd2*<6gblzghfffaggbbblat160aV",
"6<>8fffff99if99r62wrrar<=#:2>pe#-37dddt>=:===%>6ihbbkfgggfgggcccbcdd:<<2",
"6<rfigfgffii9i2>2wrrrrirw>==$O%-7jytt7tt7====;rkxlnbkkghgfggggggcclv7:>6",
"8qfggfffff9f99bfrhhiiiwr73,73#-7jlssjv7vs>=:>0kbmmmbgggggaggaggagzkhy2>>",
"1fzbzfff9fz99fSbhkzffrri7=3s3*7dssssddvlp>-;;plbbbmbcggagggagfffgfgfzq>;",
"=<fzxggfgfff99zBwfzfprra7>*>##7lsddsd7sje*>;>abbaaa9aaaaagaagkhkggghn0==",
";;;fBggggff9999Bi2fgfriq:7777*>7s7dsssdj,$:=;<9w96u95abahggkggkgkffxn>;>",
"83:<rzfffffi999Bh6igiri1>1ee73-*7jjjsddy%-=->>47aaau9abaggagggbggfzx7=>>",
"fy<,,hzffffyff9zkekfpa0-7>vZl77,-7j7sj7->0hxd<146aua9abaaiiacifkfky:=210",
"Zy8>>,fffgffiiizffgpiw=22eNNNNv77*7jM73=2zNNn7<<5uuagggiiiffbgwgkt=:1,sZ",
"CBy0>>8rfgfzffiffhfi2>,3tMvlvMdj77#37**7hvaadc775auabbcgagggbz0p0-->:<lZ",
"BBZt0,,8tkkkgyff0kf:-23hxxjvMnhp000:&:3rfrwwtht0656cmbbcgaggbbp>->>6s7nM",
"knZqqw>>2yzggfif2t0$20tMxklhllvvktw2,0qrq2SPJHSe05ukmbccgggcbg0=,6sNMlMx",
"zkCxlj0,-wBfhfrhf;-><2kxhjhshvljvlh0kt032gPPCBZnt05ibbbcgckkg2*167NZnBnl",
"zzlZnyhj22nBkfhzq=,k0>qjhhlslnllxhqlBBxkBHHZkxxnlt74acbbczzf<=>62dAMnnbl",
"zjzBAlyjy,>gnzzq:,zJnzssdjjdlMlllhxxlzCZBCCljzxnns774abbbbg>*>3hnCCZCnzl",
"zlxxCjhjq0,-fj3-0zCnBzssssshlnMlxzkkkxvjjzllkjlzxhxp65gmnv2%>1nLJACMnnxz",
"zkxxxMSxy00,-=,3hBxBlllkssjhlnlljfhhhhshkhkkjkjjxMCCd05aa0*>,wHZZZZMnvnx",
"zljjjllnjj0-=::0xnxxxxxxjhhjvvljjhtshhhshjklhhhhhlnCMp6::%=>tvZMMAZCnvxx"
};
